<svg xmlns="http://www.w3.org/2000/svg" viewBox="0 0 522.51 522.01"><defs><style>.cls-1{fill:#231f20;}</style></defs><title>Asset 1</title><g id="Layer_2" data-name="Layer 2"><g id="Layer_1-2" data-name="Layer 1"><path class="cls-1" d="M465.86,435.79a53.62,53.62,0,0,1-53.56,53.55H86.23a53.62,53.62,0,0,1-53.56-53.55V109.72A53.62,53.62,0,0,1,86.23,56.16h92.36V23.49H86.23A86.32,86.32,0,0,0,0,109.72V435.79A86.32,86.32,0,0,0,86.23,522H412.3a86.32,86.32,0,0,0,86.22-86.22V343.43H465.86Z"/><polygon class="cls-1" points="353.56 32.67 466.21 32.67 214.18 284.7 237.27 307.79 489.84 55.23 489.84 168.95 522.51 168.95 522.51 0 353.56 0 353.56 32.67"/></g></g></svg>