<svg width="59" height="72" viewBox="0 0 59 72" fill="none" xmlns="http://www.w3.org/2000/svg">
<path fill-rule="evenodd" clip-rule="evenodd" d="M4.52727 25.5069C2.06301 35.8772 -1.38696 58.3054 4.52727 65.0549H10.3356C9.80756 66.2853 8.44638 69.9122 10.3356 70.8555C11.3917 71.3828 13.2777 71.3828 13.5039 70.8555C14.032 69.625 14.7713 66.7421 13.5039 65.0549H45.1873C44.6592 66.8126 43.92 70.4336 45.1873 70.8555C46.4546 71.2773 47.8276 71.0313 48.3556 70.8555C48.8837 69.8007 49.623 67.1639 48.3556 65.0549H53.6362C56.9805 58.3757 61.6626 41.1151 53.6362 25.5069C49.8529 25.0121 45.0393 24.4668 39.9067 24.0068V7.4679C41.1405 7.37746 41.9247 7.23961 42.019 7.05135C42.1062 6.8771 42.2223 6.68845 42.3458 6.48779C42.9696 5.47398 43.7822 4.15344 42.019 2.8329C40.3292 1.56736 25.1212 1.25098 17.7284 1.25098C17.2003 2.30559 16.4611 4.7312 17.7284 5.99674C18.0507 6.31857 19.2254 6.59676 20.8967 6.82685V22.9509C12.7478 22.8737 6.16349 23.51 4.52727 25.5069ZM24.0651 23.0133V7.16371C28.0161 7.49213 33.017 7.64363 36.7384 7.58915V23.7377C32.5024 23.398 28.1522 23.1325 24.0651 23.0133Z" fill="#E1FDFF"/>
<path d="M20.8967 6.82685C19.2254 6.59676 18.0507 6.31857 17.7284 5.99674C16.4611 4.7312 17.2003 2.30559 17.7284 1.25098C25.1212 1.25098 40.3292 1.56736 42.019 2.8329C43.7822 4.15344 42.9696 5.47398 42.3458 6.48779C42.2223 6.68845 42.1062 6.8771 42.019 7.05135C41.9247 7.23961 41.1405 7.37746 39.9067 7.4679M20.8967 6.82685V22.9509M20.8967 6.82685C21.821 6.95409 22.8972 7.06663 24.0651 7.16371M20.8967 22.9509C12.7478 22.8737 6.16349 23.51 4.52727 25.5069C2.06301 35.8772 -1.38696 58.3053 4.52727 65.0549H10.3356M20.8967 22.9509C21.93 22.9607 22.9884 22.9819 24.0651 23.0133M24.0651 7.16371V23.0133M24.0651 7.16371C28.0161 7.49213 33.017 7.64363 36.7384 7.58915M24.0651 23.0133C28.1522 23.1325 32.5024 23.398 36.7384 23.7377M36.7384 7.58915V23.7377M36.7384 7.58915C37.9598 7.57126 39.0433 7.53119 39.9067 7.4679M36.7384 23.7377C37.8037 23.8231 38.8618 23.9132 39.9067 24.0068M39.9067 7.4679V24.0068M39.9067 24.0068C45.0393 24.4668 49.8529 25.0121 53.6362 25.5069C61.6626 41.1151 56.9805 58.3757 53.6362 65.0549H48.3556M10.3356 65.0549C9.80756 66.2853 8.44638 69.9122 10.3356 70.8555C11.3917 71.3828 13.2777 71.3828 13.5039 70.8555C14.032 69.625 14.7713 66.7421 13.5039 65.0549M10.3356 65.0549H13.5039M13.5039 65.0549H45.1873M45.1873 65.0549C44.6592 66.8126 43.92 70.4336 45.1873 70.8555C46.4546 71.2773 47.8276 71.0313 48.3556 70.8555C48.8837 69.8007 49.623 67.1639 48.3556 65.0549M45.1873 65.0549H48.3556" stroke="#A0E0E4" stroke-width="1.09948"/>
</svg>
