<svg width="53" height="105" viewBox="0 0 53 105" fill="none" xmlns="http://www.w3.org/2000/svg">
<path fill-rule="evenodd" clip-rule="evenodd" d="M4.23539 21.6647C2.13893 40.2154 -1.00575 80.6768 3.18716 94.1173C4.25264 94.52 5.48652 94.9413 6.85702 95.3587C6.50761 97.5701 6.01844 102.203 6.85702 103.043C7.90525 104.093 11.0499 103.568 11.5741 103.043C12.0982 102.518 12.5501 99.796 10.7518 96.4318C19.4581 98.5925 31.4446 100.045 41.4486 97.0814C40.7498 98.3686 39.7714 101.363 41.4486 103.043C42.4968 103.393 44.6981 103.883 45.1174 103.043L45.1397 102.998C45.6704 101.937 46.6677 99.9413 45.1174 95.7467C46.2035 95.2703 47.2544 94.7291 48.2621 94.1173C51.4068 78.1917 55.8093 41.4054 48.2621 21.6647C45.9868 20.7753 42.5342 19.773 38.3039 19.0345V7.55054C39.1699 7.37755 39.7319 7.18053 39.8763 6.96358C40.9245 5.38852 40.9245 2.76343 39.8763 2.23841C38.828 1.71339 24.1539 0.138335 14.1946 1.71339C13.6705 2.76343 12.9368 5.28352 14.1946 6.96358C14.4734 7.33594 15.4278 7.62577 16.8152 7.84186V18.5509C12.6835 19.11 8.43756 20.0983 4.23539 21.6647ZM19.4358 18.2508V8.13128C24.2496 8.50325 31.2426 8.37544 35.6833 7.91919V18.6271C30.8919 17.9723 25.3178 17.6977 19.4358 18.2508Z" fill="#DEEDFF"/>
<path d="M16.8152 7.84186C15.4278 7.62577 14.4734 7.33594 14.1946 6.96358C12.9368 5.28352 13.6705 2.76343 14.1946 1.71339C24.1539 0.138335 38.828 1.71339 39.8763 2.23841C40.9245 2.76343 40.9245 5.38852 39.8763 6.96358C39.7319 7.18053 39.1699 7.37755 38.3039 7.55054M16.8152 7.84186V18.5509M16.8152 7.84186C17.5728 7.95984 18.4595 8.05584 19.4358 8.13128M16.8152 18.5509C12.6835 19.11 8.43756 20.0983 4.23539 21.6647C2.13893 40.2154 -1.00575 80.6768 3.18716 94.1173C4.25264 94.52 5.48652 94.9413 6.85702 95.3587M16.8152 18.5509C17.6944 18.4319 18.5684 18.3323 19.4358 18.2508M19.4358 8.13128V18.2508M19.4358 8.13128C24.2496 8.50325 31.2426 8.37544 35.6833 7.91919M19.4358 18.2508C25.3178 17.6977 30.8919 17.9723 35.6833 18.6271M35.6833 7.91919V18.6271M35.6833 7.91919C36.7141 7.81329 37.6073 7.68969 38.3039 7.55054M35.6833 18.6271C36.5857 18.7504 37.4603 18.8872 38.3039 19.0345M38.3039 7.55054V19.0345M38.3039 19.0345C42.5342 19.773 45.9868 20.7753 48.2621 21.6647C55.8094 41.4054 51.4068 78.1917 48.2621 94.1173C47.2544 94.7291 46.2035 95.2703 45.1174 95.7467M10.0017 32.1654C8.60407 48.966 6.64738 84.1423 10.0017 90.4425M43.5451 32.1654C44.9427 48.966 46.8994 84.1423 43.5451 90.4425M6.85702 95.3587C6.50761 97.5701 6.01844 102.203 6.85702 103.043C7.90525 104.093 11.0499 103.568 11.5741 103.043C12.0982 102.518 12.5501 99.796 10.7518 96.4318M6.85702 95.3587C8.05757 95.7244 9.36296 96.0871 10.7518 96.4318M10.7518 96.4318C19.4581 98.5925 31.4446 100.045 41.4486 97.0814M41.4486 97.0814C40.7498 98.3686 39.7714 101.363 41.4486 103.043C42.4968 103.393 44.6981 103.883 45.1174 103.043M41.4486 97.0814C42.7064 96.7088 43.9328 96.2663 45.1174 95.7467M45.1174 103.043L45.1397 102.998M45.1174 103.043C45.1248 103.028 45.1322 103.013 45.1397 102.998M45.1174 95.7467C46.6677 99.9413 45.6704 101.937 45.1397 102.998M19.4358 23.7651C19.2611 24.2901 19.0165 25.5502 19.4358 26.3902C19.9599 27.4402 30.9663 25.3402 34.6351 26.3902C35.1592 25.8652 35.893 24.6051 34.6351 23.7651C33.0628 22.7151 20.484 23.2401 19.4358 23.7651Z" stroke="#97BCE9" stroke-width="1.09948"/>
</svg>
