<svg width="63" height="112" viewBox="0 0 63 112" fill="none" xmlns="http://www.w3.org/2000/svg">
<path fill-rule="evenodd" clip-rule="evenodd" d="M4.43159 41.8924C1.9803 57.4979 -1.45151 90.7078 4.43159 98.7034C5.68693 98.9003 7.06403 99.104 8.5371 99.3084C7.83673 101.958 6.85622 107.468 8.5371 108.31C10.6382 109.362 14.8404 110.74 12.214 99.7932C23.9699 101.265 39.7545 102.509 49.5087 101.119C48.6332 103.516 47.4076 108.731 49.5087 110.414C52.1351 112.518 54.3326 110.414 54.3326 109.362C54.3326 109.158 54.3882 108.872 54.4587 108.51C54.7519 107.004 55.3029 104.173 53.1856 100.385C54.7694 99.9501 56.0543 99.3962 56.959 98.7034C60.811 87.3061 66.414 59.9878 58.0096 41.8924C56.9326 41.5688 55.6988 41.232 54.3326 40.8962C51.3072 40.1524 47.6327 39.4137 43.5747 38.8351V6.78624C43.7731 6.90034 43.9552 7.00857 44.1225 7.10796C44.7129 7.45888 45.118 7.69964 45.4029 7.69964C46.9788 7.69964 48.5546 5.0695 45.4029 2.43936C42.2513 -0.190784 22.816 1.3873 20.1896 2.43936C18.0885 3.281 18.2636 6.2969 18.6138 7.69964C19.5192 7.36555 20.3943 7.06177 21.2402 6.78624V38.0011C15.352 38.5015 9.56322 39.69 4.43159 41.8924ZM24.9171 37.7754V5.71357C32.2907 3.82858 37.0537 4.31219 40.1502 5.27346V38.3978C35.3419 37.8557 30.1359 37.5733 24.9171 37.7754Z" fill="#FFE3FE"/>
<path d="M4.43159 98.7034C-1.45151 90.7078 1.9803 57.4979 4.43159 41.8924C9.56322 39.69 15.352 38.5015 21.2402 38.0011M4.43159 98.7034C26.7035 90.7085 46.9789 56.834 54.3326 40.8962M4.43159 98.7034C5.68693 98.9003 7.06403 99.104 8.5371 99.3084M54.3326 40.8962C55.6988 41.232 56.9326 41.5688 58.0096 41.8924C66.414 59.9878 60.811 87.3061 56.959 98.7034C56.0543 99.3962 54.7694 99.9501 53.1856 100.385M54.3326 40.8962C51.3072 40.1524 47.6327 39.4137 43.5747 38.8351M21.2402 6.78624C20.3943 7.06177 19.5192 7.36555 18.6138 7.69964C18.2636 6.2969 18.0885 3.281 20.1896 2.43936C22.816 1.3873 42.2513 -0.190784 45.4029 2.43936C48.5546 5.0695 46.9788 7.69964 45.4029 7.69964C45.118 7.69964 44.7129 7.45888 44.1225 7.10796C43.9552 7.00857 43.7731 6.90034 43.5747 6.78624M21.2402 6.78624V38.0011M21.2402 6.78624C22.5329 6.36517 23.7573 6.01007 24.9171 5.71357M21.2402 38.0011C22.4632 37.8971 23.6905 37.8229 24.9171 37.7754M24.9171 5.71357V37.7754M24.9171 5.71357C32.2907 3.82858 37.0537 4.31219 40.1502 5.27346M24.9171 37.7754C30.1359 37.5733 35.3419 37.8557 40.1502 38.3978M40.1502 5.27346V38.3978M40.1502 5.27346C41.6444 5.73732 42.7505 6.31241 43.5747 6.78624M40.1502 38.3978C41.3169 38.5293 42.4603 38.6762 43.5747 38.8351M43.5747 6.78624V38.8351M8.5371 99.3084C7.83673 101.958 6.85622 107.468 8.5371 108.31C10.6382 109.362 14.8404 110.74 12.214 99.7932M8.5371 99.3084C9.70657 99.4706 10.9365 99.6332 12.214 99.7932M12.214 99.7932C23.9699 101.265 39.7545 102.509 49.5087 101.119M49.5087 101.119C48.6332 103.516 47.4076 108.731 49.5087 110.414C52.1351 112.518 54.3326 110.414 54.3326 109.362C54.3326 109.158 54.3882 108.872 54.4587 108.51C54.7519 107.004 55.3029 104.173 53.1856 100.385M49.5087 101.119C50.8588 100.927 52.0933 100.684 53.1856 100.385" stroke="#F3B4F0" stroke-width="1.09948"/>
</svg>
