<svg width="56" height="105" viewBox="0 0 56 105" fill="none" xmlns="http://www.w3.org/2000/svg">
<path fill-rule="evenodd" clip-rule="evenodd" d="M6.79861 16.6273C2.42284 36.9642 -3.70323 80.2679 6.79861 90.787C7.13819 90.8454 7.48848 90.9043 7.84876 90.9637C7.32366 94.0609 6.58854 100.676 7.84876 102.359C9.42403 104.463 9.94912 103.411 10.4742 102.359C10.9993 101.307 12.301 94.712 10.8625 91.4352C21.6869 93.0425 38.2483 94.6266 47.2306 92.6643C46.8806 94.844 46.3905 99.8345 47.2306 102.359C48.2808 105.515 50.3812 104.463 50.9063 102.359C51.3107 100.739 51.0921 95.8626 50.9703 93.146C50.934 92.3357 50.9063 91.7175 50.9063 91.4352C51.2955 91.2355 51.6467 91.0198 51.9565 90.787C53.8818 69.5735 56.5773 25.0426 51.9565 16.6273C49.3255 16.219 46.067 15.7762 42.5048 15.3756V6.1084C44.5826 4.82344 45.1077 2.19366 42.5048 1.3748C41.0019 0.901997 22.0262 0.848843 18.3506 1.3748C15.4101 1.79556 13.6022 3.77172 16.2502 6.1084V14.272C11.9981 14.5901 8.58735 15.3134 6.79861 16.6273ZM38.8292 6.1084V14.9896C32.567 14.3792 25.7549 13.9607 19.9259 14.0978V6.1084H38.8292Z" fill="#F5E7FF"/>
<path d="M16.2502 14.272C11.9981 14.5901 8.58735 15.3134 6.79861 16.6273C2.42284 36.9642 -3.70323 80.2679 6.79861 90.787C7.13819 90.8454 7.48848 90.9043 7.84876 90.9637M16.2502 14.272V6.1084M16.2502 14.272C17.4174 14.1847 18.648 14.1279 19.9259 14.0978M16.2502 6.1084C13.6022 3.77172 15.4101 1.79556 18.3506 1.3748C22.0262 0.848843 41.0019 0.901997 42.5048 1.3748C45.1077 2.19366 44.5826 4.82344 42.5048 6.1084M16.2502 6.1084H19.9259M42.5048 6.1084V15.3756M42.5048 6.1084H38.8292M42.5048 15.3756C46.067 15.7762 49.3255 16.219 51.9565 16.6273C56.5773 25.0426 53.8818 69.5735 51.9565 90.787C51.6467 91.0198 51.2955 91.2355 50.9063 91.4352M42.5048 15.3756C41.3097 15.2412 40.0804 15.1116 38.8292 14.9896M38.8292 6.1084V14.9896M38.8292 6.1084H19.9259M38.8292 14.9896C32.567 14.3792 25.7549 13.9607 19.9259 14.0978M19.9259 6.1084V14.0978M47.2306 92.6643C46.8806 94.844 46.3905 99.8345 47.2306 102.359C48.2808 105.515 50.3812 104.463 50.9063 102.359C51.3107 100.739 51.0921 95.8626 50.9703 93.146C50.934 92.3357 50.9063 91.7175 50.9063 91.4352M47.2306 92.6643C48.6682 92.3502 49.9116 91.9453 50.9063 91.4352M47.2306 92.6643C38.2483 94.6266 21.6869 93.0425 10.8625 91.4352M7.84876 90.9637C7.32366 94.0609 6.58854 100.676 7.84876 102.359C9.42403 104.463 9.94912 103.411 10.4742 102.359C10.9993 101.307 12.301 94.712 10.8625 91.4352M7.84876 90.9637C8.78944 91.1189 9.79825 91.2771 10.8625 91.4352M13.0771 22.7059C22.0812 24.7322 41.303 27.5689 46.1579 22.7059" stroke="#D6B3F1" stroke-width="1.09948"/>
<path d="M35.1042 67.895H20.8958C18.7417 67.895 17 66.1444 17 63.9791V50.2508C17 48.0856 18.7417 46.335 20.8958 46.335H35.1042C37.2583 46.335 39 48.0856 39 50.2508V63.9791C39 66.1444 37.2583 67.895 35.1042 67.895Z" fill="#FF26BE"/>
<path d="M34.7559 66.9736H21.2442C19.4109 66.9736 17.9167 65.4718 17.9167 63.629V50.6009C17.9167 48.7582 19.4109 47.2563 21.2442 47.2563H34.7467C36.5892 47.2563 38.0742 48.7582 38.0742 50.6009V63.6198C38.0834 65.4718 36.5892 66.9736 34.7559 66.9736Z" fill="#2E001F"/>
<path d="M25.6992 56.4239L28.2658 61.3809C28.3117 61.4546 28.2842 61.5283 28.2108 61.5283H26.6158C26.515 61.5283 26.4692 61.5006 26.4233 61.4085C25.8367 60.1923 25.2408 58.9761 24.6267 57.6678H24.6083C24.0583 58.9024 23.4533 60.2015 22.8667 61.4177C22.8208 61.4914 22.775 61.5191 22.7017 61.5191H21.1892C21.0975 61.5191 21.0883 61.4454 21.1342 61.3901L23.6458 56.5805L21.2167 51.7157C21.1617 51.642 21.2167 51.5867 21.2717 51.5867H22.8483C22.94 51.5867 22.9767 51.6052 23.0133 51.6881C23.5908 52.9043 24.1775 54.1573 24.7275 55.3828H24.7458C25.2775 54.1666 25.8642 52.9043 26.4325 51.6973C26.4783 51.6236 26.5058 51.5775 26.5975 51.5775H28.0733C28.1467 51.5775 28.1742 51.6328 28.1283 51.7065L25.6992 56.4239ZM28.715 57.9257C28.715 55.779 30.1358 54.1021 32.3908 54.1021C32.5833 54.1021 32.6842 54.1021 32.8675 54.1205V51.6789C32.8675 51.6236 32.9133 51.5867 32.9592 51.5867H34.4075C34.4808 51.5867 34.4992 51.6144 34.4992 51.6604V60.1186C34.4992 60.3674 34.4992 60.6806 34.545 61.0215C34.545 61.0768 34.5267 61.0952 34.4717 61.1229C33.7017 61.4914 32.895 61.6573 32.125 61.6573C30.1358 61.6665 28.715 60.4319 28.715 57.9257ZM32.8675 55.567C32.7392 55.5118 32.5558 55.4749 32.3358 55.4749C31.1808 55.4749 30.3742 56.3686 30.3742 57.852C30.3742 59.5473 31.1992 60.2292 32.235 60.2292C32.455 60.2292 32.6933 60.2015 32.8675 60.1278V55.567Z" fill="#FFD9F2"/>
</svg>
