<svg width="48" height="103" viewBox="0 0 48 103" fill="none" xmlns="http://www.w3.org/2000/svg">
<path fill-rule="evenodd" clip-rule="evenodd" d="M4.4371 33.9315C1.26036 41.2859 -1.28219 82.4652 3.37797 93.8107C4.62182 94.1138 6.05019 94.4318 7.61367 94.7453C7.0841 96.3599 6.34271 99.9042 7.61367 101.165C9.20236 102.741 10.2615 101.69 10.7911 101.165C11.3206 100.64 11.3206 96.3448 10.7911 95.3407C19.0628 96.7845 29.7308 97.8338 37.2693 96.314C36.9162 97.7559 36.422 100.85 37.2693 101.69C38.3284 102.741 39.5426 102.062 39.9171 101.69C40.4467 101.165 41.5058 99.5427 39.9171 95.6265C41.3452 95.1581 42.5989 94.56 43.6241 93.8107C46.4484 79.979 50.4025 48.6387 43.6241 33.9315C40.6001 33.3691 36.564 32.7398 31.9735 32.3303V8.02355C32.1589 8.10228 32.3352 8.16089 32.5031 8.19419C34.6213 8.61439 34.4448 6.26875 34.0917 5.04341C26.466 -2.10008 18.2048 2.06696 15.0274 5.04341C12.4855 8.40566 14.6744 8.54486 16.0866 8.19419C16.4463 7.90032 16.7993 7.6291 17.1457 7.37923V32.0382C12.8947 32.287 8.57702 32.8671 4.4371 33.9315ZM19.207 31.9427V6.09316C23.7193 3.73025 26.9654 5.08415 29.3257 6.47451V32.1243C26.1175 31.9118 22.6985 31.8225 19.207 31.9427Z" fill="#FFF4B9"/>
<path d="M7.61367 94.7453C6.05019 94.4318 4.62182 94.1138 3.37797 93.8107C-1.28219 82.4652 1.26036 41.2859 4.4371 33.9315C8.57702 32.8671 12.8947 32.287 17.1457 32.0382M7.61367 94.7453C7.0841 96.3599 6.34271 99.9042 7.61367 101.165C9.20236 102.741 10.2615 101.69 10.7911 101.165C11.3206 100.64 11.3206 96.3448 10.7911 95.3407M7.61367 94.7453C8.62111 94.9474 9.68464 95.1475 10.7911 95.3407M10.7911 95.3407C19.0628 96.7845 29.7308 97.8338 37.2693 96.314M37.2693 96.314C36.9162 97.7559 36.422 100.85 37.2693 101.69C38.3284 102.741 39.5426 102.062 39.9171 101.69C40.4467 101.165 41.5058 99.5427 39.9171 95.6265M37.2693 96.314C38.2034 96.1257 39.0896 95.8979 39.9171 95.6265M39.9171 95.6265C41.3452 95.1581 42.5989 94.56 43.6241 93.8107C46.4484 79.979 50.4025 48.6387 43.6241 33.9315C40.6001 33.3691 36.564 32.7398 31.9735 32.3303M17.1457 7.37923C16.7993 7.6291 16.4463 7.90032 16.0866 8.19419C14.6744 8.54486 12.4855 8.40566 15.0274 5.04341C18.2048 2.06696 26.466 -2.10008 34.0917 5.04341C34.4448 6.26875 34.6213 8.61439 32.5031 8.19419C32.3352 8.16089 32.1589 8.10228 31.9735 8.02355M17.1457 7.37923V32.0382M17.1457 7.37923C17.8606 6.86344 18.5473 6.43859 19.207 6.09316M17.1457 32.0382C17.8349 31.9979 18.5223 31.9662 19.207 31.9427M19.207 6.09316V31.9427M19.207 6.09316C23.7193 3.73025 26.9654 5.08415 29.3257 6.47451M19.207 31.9427C22.6985 31.8225 26.1174 31.9118 29.3257 32.1243M29.3257 6.47451V32.1243M29.3257 6.47451C30.371 7.09027 31.2426 7.71318 31.9735 8.02355M29.3257 32.1243C30.2259 32.1839 31.1095 32.2532 31.9735 32.3303M31.9735 8.02355V32.3303" stroke="#F1DA64" stroke-width="1.09948"/>
<path fill-rule="evenodd" clip-rule="evenodd" d="M24.3408 77.0551L12 63.1096L17.346 56.064L24.3408 55.3351L31.3356 56.064L36.6817 63.1096L24.3408 77.0551Z" fill="#FFAE00"/>
<path fill-rule="evenodd" clip-rule="evenodd" d="M24.3408 77.0549L11.9999 63.1094H36.6816L24.3408 77.0549Z" fill="#EC6C00"/>
<path fill-rule="evenodd" clip-rule="evenodd" d="M24.3408 77.0549L16.9963 63.1094H31.6854L24.3408 77.0549Z" fill="#FFAE00"/>
<path fill-rule="evenodd" clip-rule="evenodd" d="M24.3408 55.335L16.9963 63.1094L31.6854 63.1094L24.3408 55.335Z" fill="#FFEFB4"/>
<path fill-rule="evenodd" clip-rule="evenodd" d="M17.3459 56.0639L14.598 59.611L11.9999 63.1095L17.0461 63.1095L17.3459 56.0639Z" fill="#FFAE00"/>
<path fill-rule="evenodd" clip-rule="evenodd" d="M31.3358 56.0639L34.0837 59.611L36.6818 63.1095L31.6356 63.1095L31.3358 56.0639Z" fill="#FFAE00"/>
<path fill-rule="evenodd" clip-rule="evenodd" d="M17.346 56.0638L16.9963 63.1094L24.3409 55.335L17.346 56.0638Z" fill="#FED305"/>
<path fill-rule="evenodd" clip-rule="evenodd" d="M31.3357 56.0638L31.6854 63.1094L24.3409 55.335L31.3357 56.0638Z" fill="#FED305"/>
</svg>
